<svg id="Capa_1" data-name="Capa 1" xmlns="http://www.w3.org/2000/svg" viewBox="0 0 448.51 448.51"><defs><style>.cls-1{fill:#fff;}</style></defs><title>activation_1</title><path class="cls-1" d="M115.38,154.42a37.76,37.76,0,1,0,37.76,37.75A37.8,37.8,0,0,0,115.38,154.42Zm0,66.05a28.3,28.3,0,1,1,28.29-28.3A28.33,28.33,0,0,1,115.38,220.47Z"/><rect class="cls-1" x="83.5" y="281.61" width="9.47" height="99.83"/><rect class="cls-1" x="137.86" y="281.61" width="9.47" height="99.82"/><path class="cls-1" d="M114.29,245.1v-9.46H88.59a23.94,23.94,0,0,0-23.92,23.91v58.6A23.94,23.94,0,0,0,87.5,342v-9.48a14.47,14.47,0,0,1-13.36-14.41v-58.6A14.47,14.47,0,0,1,88.59,245.1Z"/><path class="cls-1" d="M166.1,318.15v-58.6a23.94,23.94,0,0,0-23.92-23.91h-25.7v9.46h25.7a14.47,14.47,0,0,1,14.45,14.45v58.6a14.47,14.47,0,0,1-13.36,14.41V342A23.94,23.94,0,0,0,166.1,318.15Z"/><rect class="cls-1" x="110.65" y="338.43" width="9.47" height="43.01"/><path class="cls-1" d="M224.25,154.42A37.76,37.76,0,1,0,262,192.17,37.8,37.8,0,0,0,224.25,154.42Zm0,66.05a28.3,28.3,0,1,1,28.29-28.3A28.33,28.33,0,0,1,224.25,220.47Z"/><rect class="cls-1" x="192.37" y="281.61" width="9.47" height="99.83"/><rect class="cls-1" x="246.73" y="281.61" width="9.47" height="99.82"/><path class="cls-1" d="M223.16,245.1v-9.46h-25.7a23.94,23.94,0,0,0-23.92,23.91v58.6A23.94,23.94,0,0,0,196.37,342v-9.48A14.47,14.47,0,0,1,183,318.15v-58.6a14.47,14.47,0,0,1,14.45-14.45Z"/><path class="cls-1" d="M275,318.15v-58.6a23.94,23.94,0,0,0-23.92-23.91h-25.7v9.46h25.7a14.47,14.47,0,0,1,14.45,14.45v58.6a14.47,14.47,0,0,1-13.36,14.41V342A23.94,23.94,0,0,0,275,318.15Z"/><rect class="cls-1" x="219.52" y="338.43" width="9.47" height="43.01"/><path class="cls-1" d="M333.12,154.42a37.76,37.76,0,1,0,37.76,37.75A37.8,37.8,0,0,0,333.12,154.42Zm0,66.05a28.3,28.3,0,1,1,28.29-28.3A28.33,28.33,0,0,1,333.12,220.47Z"/><rect class="cls-1" x="301.24" y="281.61" width="9.47" height="99.83"/><rect class="cls-1" x="355.6" y="281.61" width="9.47" height="99.82"/><path class="cls-1" d="M332,245.1v-9.46h-25.7a23.94,23.94,0,0,0-23.92,23.91v58.6A23.94,23.94,0,0,0,305.24,342v-9.48a14.47,14.47,0,0,1-13.36-14.41v-58.6a14.47,14.47,0,0,1,14.45-14.45Z"/><path class="cls-1" d="M383.84,318.15v-58.6a23.94,23.94,0,0,0-23.92-23.91h-25.7v9.46h25.7a14.47,14.47,0,0,1,14.45,14.45v58.6A14.47,14.47,0,0,1,361,332.56V342A23.94,23.94,0,0,0,383.84,318.15Z"/><rect class="cls-1" x="328.39" y="338.43" width="9.47" height="43.01"/><path class="cls-1" d="M280.24,67.08a34.86,34.86,0,1,0,34.85,34.85A34.89,34.89,0,0,0,280.24,67.08Zm0,60.25a25.4,25.4,0,1,1,25.39-25.4A25.42,25.42,0,0,1,280.24,127.33Z"/><path class="cls-1" d="M279.14,150.63v-9.46H255.79a22.22,22.22,0,0,0-16.18,7l7.22,6.16a12.72,12.72,0,0,1,9-3.71Z"/><path class="cls-1" d="M313.32,154l7-6.41a22.24,22.24,0,0,0-15.63-6.45H281.33v9.46h23.35A12.8,12.8,0,0,1,313.32,154Z"/><path class="cls-1" d="M168.46,67.08a34.86,34.86,0,1,0,34.86,34.85A34.89,34.89,0,0,0,168.46,67.08Zm0,60.25a25.4,25.4,0,1,1,25.39-25.4A25.42,25.42,0,0,1,168.46,127.33Z"/><path class="cls-1" d="M167.37,150.63v-9.46H144a22.18,22.18,0,0,0-16.18,7l7.21,6.16a12.75,12.75,0,0,1,9-3.71Z"/><path class="cls-1" d="M201.54,154l7-6.41a22.28,22.28,0,0,0-15.64-6.45H169.55v9.46H192.9A12.77,12.77,0,0,1,201.54,154Z"/></svg>