<svg id="Capa_1" data-name="Capa 1" xmlns="http://www.w3.org/2000/svg" viewBox="0 0 448.51 448.51"><defs><style>.cls-1{fill:#a51d37;}</style></defs><title>activation-active</title><path class="cls-1" d="M419.91,312.72V281.45l-19.34-3.57a76.73,76.73,0,0,0-8.42-20.21l11.15-16.23-22.08-22.08L365,230.52c-2.07-1.24-4.22-2.34-6.4-3.38l17.59-66.26H360.68V88.35H212.56L177.79,57.11H59.22V87.73H28.6V332H256.49c.78,1.53,1.6,3.05,2.48,4.53l-11.16,16.24L270,374.86l16.23-11.16a76.12,76.12,0,0,0,20.21,8.37L310,391.4h31.27l3.57-19.34A77.64,77.64,0,0,0,365,363.7l16.24,11.16,22.07-22.14-11.14-16.23a75.31,75.31,0,0,0,8.42-20.21ZM68.18,66.07H174.36l34.77,31.24H351.72v63.57H330.07V119H181.94L147.18,87.73h-79ZM37.56,96.69H143.74l34.77,31.24H321.1v32.95H72.67L37.56,293.13ZM38.91,323,79.56,169.84h285l-14.3,53.88q-2.69-.9-5.44-1.62l-3.57-19.34H310l-3.56,19.33a74.62,74.62,0,0,0-20.22,8.43L270,219.37l-22.14,22.07L259,257.68a77.36,77.36,0,0,0-8.36,20.2l-19.35,3.57v31.27l19.33,3.56c.58,2.27,1.3,4.5,2.08,6.71ZM381.4,336.67l10.3,15-11.55,11.59-15-10.29c-8.71,5.68-17.92,10-28.15,11.67l-3.28,17.81H317.41l-3.29-17.83A70.09,70.09,0,0,1,286,353l-15,10.29-11.6-11.59,10.28-15c-6.24-9.44-10.24-18.83-11.65-28.15l-17.83-3.28V288.9L258,285.62a71.66,71.66,0,0,1,11.67-28.14l-10.28-15L271,231l15,10.3a69.31,69.31,0,0,1,28.12-11.72l3.29-17.83h16.35l3.28,17.8a70.85,70.85,0,0,1,28.14,11.75l15-10.3,11.55,11.54-10.3,15c6,9.12,10.23,18.46,11.74,28.13L411,288.9v16.36l-17.83,3.28C391,319.05,387.35,328.56,381.4,336.67Z"/><path class="cls-1" d="M374.64,295.88A49.12,49.12,0,1,0,325.52,345,49.17,49.17,0,0,0,374.64,295.88Zm-89.27,0A40.16,40.16,0,1,1,325.52,336,40.2,40.2,0,0,1,285.37,295.88Z"/><rect class="cls-1" x="82.05" y="298.23" width="8.96" height="8.96"/><rect class="cls-1" x="58.15" y="298.23" width="8.96" height="8.96"/><rect class="cls-1" x="129.84" y="298.23" width="8.96" height="8.96"/><rect class="cls-1" x="105.95" y="298.23" width="8.96" height="8.96"/></svg>