<svg id="Capa_1" data-name="Capa 1" xmlns="http://www.w3.org/2000/svg" viewBox="0 0 448.51 448.51"><defs><style>.cls-1{fill:#fff;}</style></defs><title>home</title><path class="cls-1" d="M442.48,212.75a5.35,5.35,0,0,0-2-3.63L239,46.31,227.7,37a5.39,5.39,0,0,0-6.89,0l-68,56.47V60.23a5.4,5.4,0,0,0-5.39-5.39H104a5.4,5.4,0,0,0-5.4,5.39v78.09L8,212.22a5.4,5.4,0,0,0,6.84,8.36l44.26-36.11V385.8a5.4,5.4,0,0,0,5.4,5.39H186.27a5.4,5.4,0,0,0,5.39-5.39V291.37h65.18V385.8a5.41,5.41,0,0,0,5.4,5.39H384a5.4,5.4,0,0,0,5.4-5.39v-204l44.29,35.77a5.4,5.4,0,0,0,7.59-.8,5.38,5.38,0,0,0,1.17-4ZM109.36,65.63H142v36l-32.66,26.43ZM378.63,380.4h-111V286a5.4,5.4,0,0,0-5.4-5.4h-76a5.4,5.4,0,0,0-5.4,5.4V380.4h-111v-204l46.47-38.6c26.56-21.76,96.2-78.92,103.51-85.31L223,47.09,378.63,176.35Z"/></svg>