<svg id="Capa_1" data-name="Capa 1" xmlns="http://www.w3.org/2000/svg" viewBox="0 0 200 153.36"><defs><style>.cls-1,.cls-2,.cls-3{fill:none;stroke:#fff;stroke-linejoin:round;stroke-width:6px;}.cls-2{stroke-linecap:round;}.cls-3{stroke-linecap:square;}</style></defs><title>1</title><g id="exam-test-quiz"><g id="_Grupo_" data-name="&lt;Grupo&gt;"><path class="cls-1" d="M151.64,52a9,9,0,0,1,9,9v65.12"/><path class="cls-1" d="M39.38,126.08V61a9,9,0,0,1,9-9"/><path class="cls-2" d="M156.13,146.29H43.87a13.48,13.48,0,0,1-13.48-13.47H84.28v4.49h31.44v-4.49h53.89A13.48,13.48,0,0,1,156.13,146.29Z"/></g><path class="cls-3" d="M144.91,117.1V11.57a4.49,4.49,0,0,0-4.49-4.5H59.58a4.49,4.49,0,0,0-4.49,4.5V117.1"/><rect class="cls-2" x="73.06" y="27.28" width="15.72" height="15.72"/><line class="cls-2" x1="102.25" y1="36.26" x2="129.19" y2="36.26"/><rect class="cls-2" x="73.06" y="92.4" width="15.72" height="15.72"/><line class="cls-2" x1="102.25" y1="99.13" x2="129.19" y2="99.13"/><polyline class="cls-2" points="73.06 65.45 79.79 72.19 88.77 58.72"/><line class="cls-2" x1="102.25" y1="67.7" x2="129.19" y2="67.7"/></g></svg>