<svg id="Capa_1" data-name="Capa 1" xmlns="http://www.w3.org/2000/svg" viewBox="0 0 200 153.36"><defs><style>.cls-1{fill:#fff;}</style></defs><title>2</title><path class="cls-1" d="M161.21,74.61c8.61-18,5.65-39.64-7.45-54.15A49.35,49.35,0,0,0,93.83,10.31,48.82,48.82,0,0,0,26.56,74.77l-.62.62a14.87,14.87,0,0,0,10.51,25.37,11.24,11.24,0,0,0,1.32-.09A14.87,14.87,0,0,0,42,112.49a14.37,14.37,0,0,0,11.84,4.27,14.81,14.81,0,0,0,14.76,16.17,11.4,11.4,0,0,0,1.32-.09,14.76,14.76,0,0,0,24,12.9l.19.1a14.76,14.76,0,0,0,19.56-1.27,14.88,14.88,0,0,0,4.29-11.78A14.86,14.86,0,0,0,134,116.7a14.85,14.85,0,0,0,16.08-16.08,15,15,0,0,0,11.8-4.3,14.88,14.88,0,0,0,0-21ZM99.47,15.23a42.31,42.31,0,0,1,49.12,9.9,42.07,42.07,0,0,1,7.34,44.2L114.27,27.67a3.47,3.47,0,0,0-2.47-1,3.43,3.43,0,0,0-2.46,1L85.9,51.11a7.89,7.89,0,0,1-13.46-5.58A7.84,7.84,0,0,1,74.75,40Zm-63,78.47a7.81,7.81,0,0,1-5.58-13.38l8.63-8.63A7.88,7.88,0,1,1,50.65,82.84L42,91.47A7.88,7.88,0,0,1,36.45,93.7Zm16.08,16.09A7.81,7.81,0,0,1,47,96.4l8.62-8.63A7.89,7.89,0,0,1,66.74,98.93l-8.63,8.63A8,8,0,0,1,52.53,109.79ZM63,123.64a7.88,7.88,0,0,1,0-11.15l8.63-8.63A7.88,7.88,0,1,1,82.82,115l-8.63,8.63A8.08,8.08,0,0,1,63,123.64Zm27.23,16.09a8.11,8.11,0,0,1-11.15,0,7.92,7.92,0,0,1,0-11.16l8.63-8.63A7.89,7.89,0,1,1,98.9,131.1Zm18.45-.09a7.87,7.87,0,0,1-9.64,1.15l4.76-4.76a14.72,14.72,0,0,0,4.21-8.49,3.28,3.28,0,0,0,.67,1A7.88,7.88,0,0,1,108.72,139.64ZM157,91.39a7.88,7.88,0,0,1-5.57,2.23h0a7.9,7.9,0,0,1-5.58-2.23,3.56,3.56,0,0,0-4.93,0,3.49,3.49,0,0,0,0,4.93,7.8,7.8,0,0,1-5.57,13.38h0a7.9,7.9,0,0,1-5.57-2.22,3.56,3.56,0,0,0-4.93,0,3.45,3.45,0,0,0,0,4.92,7.91,7.91,0,0,1,0,11.16,8.1,8.1,0,0,1-11.16,0,3.48,3.48,0,0,0-4.92,0,3.1,3.1,0,0,0-.59.77A14.78,14.78,0,0,0,92,110.76a11.45,11.45,0,0,0,.08-1.33,14.73,14.73,0,0,0-4.35-10.5,14.9,14.9,0,0,0-11.81-4.25A11.45,11.45,0,0,0,76,93.35,14.79,14.79,0,0,0,59.85,78.59a11.24,11.24,0,0,0,.09-1.32A14.86,14.86,0,0,0,34.57,66.76L31.8,69.53A41.85,41.85,0,0,1,89.11,15.72L69.82,35a14.86,14.86,0,1,0,21,21l21-21L157,80.24a7.88,7.88,0,0,1,0,11.15Z"/></svg>