<svg id="diageo.now.58hx250w" xmlns="http://www.w3.org/2000/svg" viewBox="0 0 114.7 77.12"><defs><style>.cls-1{fill:#fff;}</style></defs><title>logo-dxc</title><path class="cls-1" d="M-88.61,16a2.19,2.19,0,0,1,.3-.5l3-7.3,3,7.4c.1.1.2.4.3.5l-.4.1a10.27,10.27,0,0,1-5.5,0c-.4-.1-.6-.1-.7-.2m-30.2-11.1c3.3,0,5.7.7,7.2,2A7.76,7.76,0,0,1-109,13a7.85,7.85,0,0,1-2.5,6c-1.5,1.4-3.9,2.2-7.3,2.2h-1.1V4.94ZM-15.61,7a8.16,8.16,0,0,1,2.5,6,8.22,8.22,0,0,1-2.5,6,8.16,8.16,0,0,1-6,2.5,8.58,8.58,0,0,1-8.5-8.6,8.62,8.62,0,0,1,2.5-6.1,8.57,8.57,0,0,1,6-2.5,8.82,8.82,0,0,1,6,2.7m-39.7,1.4,3-2.5A12.41,12.41,0,0,0-62.41.74,12.25,12.25,0,0,0-74.81,13a12.29,12.29,0,0,0,12.2,12.4,11.7,11.7,0,0,0,4.9-1.1,11.38,11.38,0,0,0,3.9-2.9,8.76,8.76,0,0,0,2.1-3.9,16.78,16.78,0,0,0,.4-4.5l-.1-.7H-62v3.8h6.7a6.33,6.33,0,0,1-2.3,3.9,8.26,8.26,0,0,1-5,1.8,8.68,8.68,0,0,1-5.9-2.6,8.34,8.34,0,0,1-2.5-5.9,8.69,8.69,0,0,1,2.5-6.2,8.16,8.16,0,0,1,5.9-2.5c3.1-.1,5.3,1.2,7.3,3.8m-25.4,11.4,2.2,5.3h4.4l-10.2-24h-2l-10.5,24h4.3l2.3-5.3a.76.76,0,0,0,.1-.4c.1.1.3.1.4.2a12.6,12.6,0,0,0,4.3.8,12.56,12.56,0,0,0,3.8-.6,4.88,4.88,0,0,0,.7-.3c.2,0,.2.3.2.3M-119,25c4.5,0,7.8-1,10.1-3.1a12.42,12.42,0,0,0,3.9-9,12.35,12.35,0,0,0-4-9c-2.3-1.9-5.6-2.9-9.9-2.9H-124v23.9Zm16.7,0h3.9V1.14h-3.9Zm57.6-11.1h8.4v-3.8h-8.4V4.84h9.1V1h-13.1v23.9h13.1v-3.8h-9.1Zm14.3-9.6a12,12,0,0,0-3.7,8.8,12.4,12.4,0,0,0,12.4,12.4,12.4,12.4,0,0,0,12.4-12.4,12.85,12.85,0,0,0-3.6-8.8,12.34,12.34,0,0,0-8.8-3.7,13.18,13.18,0,0,0-8.7,3.7" transform="translate(124.01 -0.64)"/><path class="cls-1" d="M-76.18,68c-1.09,1.36-2.14,2.7-3.2,4a2.15,2.15,0,0,1-3.2.45,2.21,2.21,0,0,1-.17-3.18Q-77,62-71.19,54.75A2.58,2.58,0,0,1-69,53.69q8.12,0,16.24,0a2,2,0,0,1,2,1.17c.2.44.36.4.72.22,4.72-2.46,9.18-2,13.38,1.26a2.51,2.51,0,0,1,1.26,2.32,2.05,2.05,0,0,1-1.35,1.81A2.16,2.16,0,0,1-39.12,60a7.68,7.68,0,0,0-3.5-1.89,7.58,7.58,0,0,0-9.3,7.18,2.25,2.25,0,0,1-1.89,2.37,2.16,2.16,0,0,1-2.33-1.4,5.81,5.81,0,0,1,0-2.59,11.43,11.43,0,0,1,.87-3A12.46,12.46,0,0,1-53.62,58c-1.49,0-2.87,0-4.24,0-.61,0-.44.39-.44.69V70.1c0,1.78,0,3.55,0,5.33a2.09,2.09,0,0,1-1.87,2.19,2,2,0,0,1-2.34-1.56,3.49,3.49,0,0,1-.07-.86c0-5.49,0-11,0-16.48,0-.62-.16-.79-.78-.77-1.41,0-2.81,0-4.22,0a1.07,1.07,0,0,0-1,.46C-70,60.29-71.46,62.14-73,64c-.42.51-.44.79,0,1.29,2.59,2.91,5.15,5.85,7.71,8.79a2.14,2.14,0,0,1-.08,3.11,2.15,2.15,0,0,1-3.15-.34q-3.49-4-7-8C-75.71,68.52-75.95,68.27-76.18,68Z" transform="translate(124.01 -0.64)"/><path class="cls-1" d="M-93.68,62.5V74.93a3.74,3.74,0,0,1-.11,1.1,2,2,0,0,1-2.39,1.57,2.07,2.07,0,0,1-1.77-2.1q0-9.68,0-19.34a2.39,2.39,0,0,1,1.58-2.41,2.26,2.26,0,0,1,2.6,1.06L-87,64c.12.17.25.33.43.55,1.47-1.94,2.93-3.84,4.38-5.74L-79,54.65a2.18,2.18,0,0,1,3.13-.55,2.14,2.14,0,0,1,.36,3.15q-4.68,6.16-9.4,12.3c-1,1.28-2.63,1.14-3.7-.27-1.45-1.92-2.88-3.86-4.31-5.79C-93.15,63.22-93.35,62.94-93.68,62.5Z" transform="translate(124.01 -0.64)"/><path class="cls-1" d="M-35.38,70.9c0,1.7,0,3.08,0,4.46a2.23,2.23,0,0,1-1.21,2.15,2,2,0,0,1-2.17-.18,2,2,0,0,1-.89-1.76c0-2,0-4,0-6,0-.52-.08-.72-.68-.71-1.54.06-3.08,0-4.62,0s-2.42-.91-2.36-2.26a2,2,0,0,1,1.91-2c2.71,0,5.42,0,8.12,0a1.81,1.81,0,0,1,1.79,1.69A41.87,41.87,0,0,1-35.38,70.9Z" transform="translate(124.01 -0.64)"/><rect class="cls-1" y="38.64" width="113.78" height="0.38"/></svg>