<svg xmlns="http://www.w3.org/2000/svg" viewBox="0 0 448.51 448.51"><defs><style>.cls-1{isolation:isolate;}.cls-2{fill:#fff;mix-blend-mode:multiply;}</style></defs><title>measurement</title><g class="cls-1"><g id="Capa_1" data-name="Capa 1"><path class="cls-2" d="M56.61,391.9V46.17H46.18v351a5.21,5.21,0,0,0,5.21,5.22h351V391.9Zm95.44-102.82-32.74-32.74a11.2,11.2,0,1,1,7.38-7.38l32.74,32.74,24.1-24.11a22.4,22.4,0,0,1,30.85-30.85L270,171.17a22.4,22.4,0,0,1,30.85-30.86l24.1-24.1L296.59,87.88a16.09,16.09,0,0,1-15,0l-64,64a16.68,16.68,0,1,1-30.72,12.73H132a16.74,16.74,0,1,1,0-10.44h54.78a16.49,16.49,0,0,1,23.34-9.67l64-64A16.56,16.56,0,0,1,272.34,73,16.75,16.75,0,1,1,304,80.51l28.33,28.32,24.1-24.09a22.73,22.73,0,1,1,7.38,7.37l-24.11,24.1L368,144.54a16.93,16.93,0,1,1-7.38,7.38L332.3,123.59l-24.1,24.1a22.41,22.41,0,0,1-30.86,30.86l-55.58,55.57a22.27,22.27,0,0,1,3.39,11.73A22.41,22.41,0,0,1,190.91,265l-24.11,24.1,32.74,32.73a9.86,9.86,0,0,1,6.2,0L278.6,249a11,11,0,1,1,21,0l72.85,72.86a10.65,10.65,0,0,1,3.1-.51A11.21,11.21,0,1,1,365,329.2l-72.86-72.86a10.93,10.93,0,0,1-3.1.5,10.59,10.59,0,0,1-3.1-.5l-72.86,72.85a10.64,10.64,0,0,1,.5,3.1,11,11,0,1,1-22,0,10.7,10.7,0,0,1,.5-3.1l-32.74-32.73-24.1,24.09a22.73,22.73,0,1,1-7.38-7.37Zm-23.77,43.21a12.07,12.07,0,1,0-12.07,12.07A12.08,12.08,0,0,0,128.28,332.29ZM375.51,153.12a6.31,6.31,0,1,0,6.32,6.31A6.31,6.31,0,0,0,375.51,153.12ZM363.45,73a12.07,12.07,0,1,0,12.06-12.06A12.08,12.08,0,0,0,363.45,73ZM122.52,159.43a6.31,6.31,0,1,0-6.31,6.3A6.32,6.32,0,0,0,122.52,159.43Zm86.44,0a6.31,6.31,0,1,0-6.31,6.3A6.32,6.32,0,0,0,209,159.43ZM289.08,79.3A6.31,6.31,0,1,0,282.77,73,6.32,6.32,0,0,0,289.08,79.3ZM277,159.43a12.07,12.07,0,1,0,12.07-12.07A12.1,12.1,0,0,0,277,159.43Zm-86.43,86.42a12.07,12.07,0,1,0,12.07-12.06A12.09,12.09,0,0,0,190.58,245.85Z"/></g></g></svg>