<svg id="Capa_1" data-name="Capa 1" xmlns="http://www.w3.org/2000/svg" viewBox="0 0 448.51 448.51"><defs><style>.cls-1{fill:#fff;}</style></defs><title>planning</title><path class="cls-1" d="M123.86,72.06H43.15V407.84H405.36V72.06H324.65V46.22a5.54,5.54,0,1,0-11.07,0V72.06H261.41V46.22a5.54,5.54,0,1,0-11.07,0V72.06H198.18V46.22a5.54,5.54,0,0,0-11.08,0V72.06H134.94V46.22a5.54,5.54,0,1,0-11.08,0Zm5.54,39.69a5.55,5.55,0,0,0,5.54-5.54V83.14H187.1v23.07a5.54,5.54,0,0,0,11.08,0V83.14h52.16v23.07a5.54,5.54,0,1,0,11.07,0V83.14h52.17v23.07a5.54,5.54,0,1,0,11.07,0V83.14h69.63V396.76h-340V83.14h69.63v23.07A5.54,5.54,0,0,0,129.4,111.75Z"/><rect class="cls-1" x="118.05" y="239.09" width="22.98" height="22.99"/><rect class="cls-1" x="118.24" y="301.55" width="22.99" height="22.99"/><rect class="cls-1" x="181.29" y="301.55" width="22.98" height="22.99"/><rect class="cls-1" x="244.34" y="301.55" width="22.99" height="22.99"/><rect class="cls-1" x="117.51" y="176.58" width="22.99" height="22.99"/><rect class="cls-1" x="180.56" y="239.04" width="22.98" height="22.99"/><rect class="cls-1" x="243.61" y="239.04" width="22.98" height="22.99"/><rect class="cls-1" x="306.66" y="239.04" width="22.98" height="22.99"/><rect class="cls-1" x="180.02" y="176.54" width="22.99" height="22.99"/><rect class="cls-1" x="243.07" y="176.54" width="22.98" height="22.99"/><rect class="cls-1" x="306.12" y="176.54" width="22.99" height="22.99"/></svg>