<svg id="Capa_1" data-name="Capa 1" xmlns="http://www.w3.org/2000/svg" viewBox="0 0 448.51 448.51"><defs><style>.cls-1{fill:#a51d37;}</style></defs><title>settings-active</title><path class="cls-1" d="M229.13,268.18a5.8,5.8,0,0,0-7.73-2.75,93.2,93.2,0,0,1-14.68,5.49,5.79,5.79,0,0,0-4.12,4.45l-6.14,30.68a6.53,6.53,0,0,1-6.38,5.23H173.34a6.53,6.53,0,0,1-6.38-5.23l-6.14-30.68a5.78,5.78,0,0,0-4.12-4.45,92.2,92.2,0,0,1-20.38-8.45,5.8,5.8,0,0,0-6.06.23l-26,17.36a6.52,6.52,0,0,1-8.21-.81L84.17,267.41a6.51,6.51,0,0,1-.81-8.21l17.36-26a5.8,5.8,0,0,0,.22-6.07,92.37,92.37,0,0,1-8.44-20.37,5.82,5.82,0,0,0-4.45-4.13l-30.68-6.13a6.53,6.53,0,0,1-5.23-6.38V173.34A6.52,6.52,0,0,1,57.37,167l30.68-6.14a5.81,5.81,0,0,0,4.45-4.12,92.45,92.45,0,0,1,8.44-20.38,5.8,5.8,0,0,0-.22-6.07l-17.36-26A6.52,6.52,0,0,1,84.17,96L96,84.17a6.51,6.51,0,0,1,8.21-.81l26,17.36a5.78,5.78,0,0,0,6.06.22A92.65,92.65,0,0,1,156.7,92.5a5.79,5.79,0,0,0,4.12-4.45L167,57.37a6.53,6.53,0,0,1,6.38-5.23h16.74a6.52,6.52,0,0,1,6.38,5.23l6.14,30.68a5.81,5.81,0,0,0,4.12,4.45,92.45,92.45,0,0,1,20.38,8.44,5.78,5.78,0,0,0,6.06-.22l26-17.36a6.51,6.51,0,0,1,8.2.81L279.25,96a6.52,6.52,0,0,1,.82,8.21l-17.36,26a5.78,5.78,0,0,0-.23,6.06,92.45,92.45,0,0,1,8.44,20.38,5.79,5.79,0,0,0,4.45,4.12L306.06,167a6.53,6.53,0,0,1,5.23,6.38v16.74a6.53,6.53,0,0,1-5.23,6.38l-30.69,6.14a5.81,5.81,0,0,0-4.45,4.12,92.19,92.19,0,0,1-5.65,15,5.8,5.8,0,1,0,10.46,5,105.84,105.84,0,0,0,5.34-13.48l27.26-5.45a18.16,18.16,0,0,0,14.55-17.76V173.34a18.16,18.16,0,0,0-14.55-17.76l-27.27-5.45a102.65,102.65,0,0,0-6.77-16.34l15.43-23.14a18.15,18.15,0,0,0-2.27-22.85L275.62,76a18.16,18.16,0,0,0-22.85-2.26L229.63,89.13a103.64,103.64,0,0,0-16.34-6.78l-5.45-27.26a18.16,18.16,0,0,0-17.76-14.55H173.34a18.16,18.16,0,0,0-17.76,14.55l-5.45,27.27a103.59,103.59,0,0,0-16.34,6.77L110.65,73.7A18.15,18.15,0,0,0,87.8,76L76,87.8a18.15,18.15,0,0,0-2.27,22.85l15.43,23.14a103.59,103.59,0,0,0-6.77,16.34l-27.27,5.45a18.16,18.16,0,0,0-14.55,17.76v16.74a18.16,18.16,0,0,0,14.55,17.76l27.27,5.45a102.65,102.65,0,0,0,6.77,16.34L73.7,252.77A18.15,18.15,0,0,0,76,275.62L87.8,287.46a18.16,18.16,0,0,0,22.85,2.26l23.14-15.42a104.55,104.55,0,0,0,16.34,6.77l5.45,27.26a18.17,18.17,0,0,0,17.76,14.56h16.74a18.17,18.17,0,0,0,17.76-14.56l5.45-27.27a103,103,0,0,0,13.08-5.15A5.8,5.8,0,0,0,229.13,268.18Z"/><path class="cls-1" d="M232,214a5.84,5.84,0,0,0,2.65.64,5.78,5.78,0,0,0,5.16-3.16A65.22,65.22,0,0,0,136.19,135a5.8,5.8,0,1,0,8.1,8.31,53.62,53.62,0,0,1,85.16,62.82A5.8,5.8,0,0,0,232,214Z"/><path class="cls-1" d="M127.4,156.89a5.79,5.79,0,0,0-7.37,3.59,65.23,65.23,0,0,0,99.9,74.08,5.8,5.8,0,0,0-6.81-9.4A53.64,53.64,0,0,1,131,164.26,5.8,5.8,0,0,0,127.4,156.89Z"/><path class="cls-1" d="M396.81,294.1,380,290.74a69.47,69.47,0,0,0-3.68-8.88l9.5-14.24a13.91,13.91,0,0,0-1.74-17.52l-7.78-7.78a13.91,13.91,0,0,0-17.52-1.74l-14.24,9.5a69.47,69.47,0,0,0-8.88-3.68l-3.35-16.78a13.93,13.93,0,0,0-13.62-11.16h-11a13.91,13.91,0,0,0-13.61,11.16l-3.36,16.78a69.47,69.47,0,0,0-8.88,3.68l-14.24-9.5a13.93,13.93,0,0,0-17.52,1.74l-7.78,7.78a13.91,13.91,0,0,0-1.74,17.52l9.5,14.24a69,69,0,0,0-4.74,12.33,5.8,5.8,0,1,0,11.17,3.12,58.15,58.15,0,0,1,5.37-12.94,5.82,5.82,0,0,0-.23-6.07l-11.41-17.11a2.31,2.31,0,0,1,.28-2.89l7.78-7.78a2.31,2.31,0,0,1,2.89-.28l17.11,11.41a5.8,5.8,0,0,0,6.07.22,58.48,58.48,0,0,1,12.95-5.36,5.81,5.81,0,0,0,4.12-4.45l4-20.16a2.3,2.3,0,0,1,2.24-1.84h11A2.3,2.3,0,0,1,321,231.9l4,20.16a5.8,5.8,0,0,0,4.13,4.45,58.15,58.15,0,0,1,12.94,5.37,5.82,5.82,0,0,0,6.07-.23l17.11-11.41a2.3,2.3,0,0,1,2.89.29l7.78,7.78a2.3,2.3,0,0,1,.28,2.88L364.78,278.3a5.8,5.8,0,0,0-.22,6.07,58.67,58.67,0,0,1,5.36,12.95,5.81,5.81,0,0,0,4.45,4.12l20.16,4a2.3,2.3,0,0,1,1.84,2.25v11a2.29,2.29,0,0,1-1.84,2.24l-20.16,4a5.8,5.8,0,0,0-4.45,4.13,58.15,58.15,0,0,1-5.37,12.94,5.82,5.82,0,0,0,.23,6.07l11.41,17.11a2.3,2.3,0,0,1-.29,2.89l-7.78,7.78a2.3,2.3,0,0,1-2.88.28l-17.11-11.41a5.8,5.8,0,0,0-6.07-.22,58.67,58.67,0,0,1-12.95,5.36,5.81,5.81,0,0,0-4.12,4.45l-4,20.16a2.3,2.3,0,0,1-2.25,1.84h-11a2.29,2.29,0,0,1-2.24-1.84l-4-20.16a5.8,5.8,0,0,0-4.13-4.45,58.15,58.15,0,0,1-12.94-5.37,5.82,5.82,0,0,0-6.07.23l-17.11,11.41a2.31,2.31,0,0,1-2.89-.28l-7.78-7.78a2.31,2.31,0,0,1-.28-2.89l11.41-17.11a5.8,5.8,0,0,0,.22-6.07,58.48,58.48,0,0,1-5.36-12.95,5.81,5.81,0,0,0-4.45-4.12l-20.16-4a2.3,2.3,0,0,1-1.84-2.24v-11a2.3,2.3,0,0,1,1.84-2.24l1.23-.24a5.8,5.8,0,1,0-2.28-11.38l-1.23.24a13.94,13.94,0,0,0-11.17,13.62v11a13.94,13.94,0,0,0,11.17,13.62l16.78,3.35a70.89,70.89,0,0,0,3.67,8.88l-9.49,14.24a13.91,13.91,0,0,0,1.74,17.52l7.78,7.78a13.91,13.91,0,0,0,17.52,1.74l14.24-9.49a70.89,70.89,0,0,0,8.88,3.67l3.35,16.78A13.94,13.94,0,0,0,307.71,408h11a13.94,13.94,0,0,0,13.62-11.17L335.69,380a69.47,69.47,0,0,0,8.88-3.68l14.24,9.5a13.91,13.91,0,0,0,17.52-1.74l7.78-7.78a13.91,13.91,0,0,0,1.74-17.52l-9.49-14.24a70.89,70.89,0,0,0,3.67-8.88l16.78-3.36A13.92,13.92,0,0,0,408,318.72v-11A13.92,13.92,0,0,0,396.81,294.1Z"/><path class="cls-1" d="M313.22,292.33a20.91,20.91,0,0,1,20.88,20.89,5.8,5.8,0,1,0,11.6,0,32.47,32.47,0,1,0-12.64,25.72,5.8,5.8,0,0,0-7.09-9.19,20.65,20.65,0,0,1-12.76,4.35,20.89,20.89,0,0,1,0-41.77Z"/><path class="cls-1" d="M217.06,181.71a35.35,35.35,0,1,0-35.35,35.35A35.39,35.39,0,0,0,217.06,181.71Zm-59.09,0a23.74,23.74,0,1,1,23.74,23.74A23.77,23.77,0,0,1,158,181.71Z"/></svg>